<svg width="358" height="358" viewBox="0 0 358 358" fill="none" xmlns="http://www.w3.org/2000/svg">
<rect width="358" height="358" fill="black"/>
<path d="M56.2699 208.88V156.965H87.419V162.716H67.2919V179.808H85.0229V185.398H67.2919V203.129H88.5371V208.88H56.2699ZM96.7967 168.945H105.343L106.701 172.22H107.02C107.02 172.114 107.446 171.714 108.298 171.022C109.203 170.33 110.481 169.691 112.132 169.105C113.782 168.466 115.832 168.147 118.282 168.147C122.382 168.147 125.443 169.265 127.467 171.501C129.543 173.684 130.581 177.119 130.581 181.804V208.88H119.959V183.961C119.959 180.393 119.559 177.971 118.761 176.693C118.015 175.415 116.631 174.776 114.608 174.776C113.223 174.776 111.999 174.989 110.934 175.415C109.869 175.841 109.017 176.32 108.378 176.852C107.739 177.332 107.419 177.598 107.419 177.651V208.88H96.7967V168.945ZM139.773 208.88V149.298L150.396 148.659V208.88H139.773ZM165.404 162.955C163.806 162.955 162.395 162.423 161.171 161.358C159.946 160.133 159.334 158.616 159.334 156.805C159.334 155.048 159.946 153.557 161.171 152.333C162.289 151.268 163.7 150.735 165.404 150.735C167.054 150.735 168.412 151.241 169.477 152.253C170.649 153.477 171.234 154.995 171.234 156.805C171.234 158.669 170.649 160.213 169.477 161.438C168.306 162.449 166.948 162.955 165.404 162.955ZM160.053 208.88V168.945H170.675V208.88H160.053ZM194.151 229.806C188.134 229.806 183.635 228.608 180.653 226.212C177.725 223.816 176.26 220.568 176.26 216.468C176.26 211.995 177.938 208.72 181.292 206.644C180.706 205.366 180.414 203.928 180.414 202.331C180.414 199.136 181.585 196.527 183.928 194.504C182.011 193.279 180.494 191.655 179.375 189.632C178.31 187.608 177.778 185.239 177.778 182.523C177.778 177.731 179.322 174.137 182.41 171.741C185.499 169.345 189.439 168.147 194.231 168.147C196.361 168.147 198.384 168.44 200.301 169.025L211.083 169.105V173.817L207.25 174.057C208.741 176.293 209.486 179.115 209.486 182.523C209.486 187.262 208.075 190.883 205.253 193.385C202.484 195.888 198.73 197.139 193.991 197.139C192.181 197.139 190.344 196.926 188.48 196.5C187.469 197.299 186.963 198.284 186.963 199.455C186.963 200.52 187.575 201.346 188.8 201.931C190.025 202.464 192.128 202.73 195.11 202.73C200.967 202.73 205.306 203.795 208.128 205.925C210.95 208.055 212.361 211.196 212.361 215.349C212.361 220.035 210.817 223.603 207.729 226.052C204.694 228.554 200.168 229.806 194.151 229.806ZM193.752 192.267C195.562 192.267 196.92 191.495 197.825 189.951C198.73 188.407 199.183 185.878 199.183 182.363C199.183 178.849 198.73 176.453 197.825 175.175C196.92 173.897 195.536 173.258 193.672 173.258C191.808 173.258 190.397 173.924 189.439 175.255C188.48 176.533 188.001 178.956 188.001 182.523C188.001 185.984 188.48 188.487 189.439 190.031C190.451 191.522 191.888 192.267 193.752 192.267ZM194.151 224.375C197.293 224.375 199.636 223.816 201.18 222.697C202.724 221.579 203.496 219.955 203.496 217.825C203.496 215.696 202.644 214.151 200.94 213.193C199.289 212.235 196.787 211.755 193.432 211.755C190.291 211.755 187.708 211.329 185.685 210.477C184.354 211.915 183.688 213.832 183.688 216.228C183.688 218.837 184.54 220.834 186.244 222.218C188.001 223.656 190.637 224.375 194.151 224.375ZM217.069 149.298L227.691 148.659V171.661H228.011C228.011 171.554 228.437 171.208 229.289 170.623C230.194 170.037 231.418 169.478 232.963 168.945C234.507 168.413 236.317 168.147 238.394 168.147C242.547 168.147 245.635 169.265 247.659 171.501C249.682 173.684 250.694 177.119 250.694 181.804V208.88H240.151V182.683C240.151 179.595 239.752 177.518 238.953 176.453C238.154 175.335 236.743 174.776 234.72 174.776C233.389 174.776 232.191 174.989 231.126 175.415C230.114 175.841 229.289 176.32 228.65 176.852C228.011 177.332 227.691 177.598 227.691 177.651V208.88H217.069V149.298ZM272.507 209.759C268.726 209.759 265.931 208.827 264.12 206.963C262.31 205.1 261.405 201.958 261.405 197.539V175.095H257.571V170.303L261.485 169.185L266.596 155.687H272.027V168.945H280.813V175.095H272.027V194.823C272.027 197.326 272.134 199.242 272.347 200.574C272.613 201.852 273.013 202.757 273.545 203.289C274.077 203.768 274.823 204.008 275.781 204.008C276.846 204.008 277.805 203.901 278.657 203.689C279.509 203.476 279.935 203.342 279.935 203.289L280.573 207.842C280.573 207.895 280.281 208.081 279.695 208.401C279.109 208.72 278.204 209.013 276.979 209.279C275.808 209.599 274.317 209.759 272.507 209.759Z" fill="white"/>
<path d="M295.153 210.158C293.396 210.158 291.905 209.599 290.68 208.481C289.402 207.203 288.763 205.632 288.763 203.768C288.763 201.905 289.402 200.307 290.68 198.976C291.905 197.858 293.396 197.299 295.153 197.299C296.91 197.299 298.374 197.858 299.546 198.976C300.823 200.307 301.462 201.905 301.462 203.768C301.462 205.632 300.823 207.203 299.546 208.481C298.374 209.599 296.91 210.158 295.153 210.158Z" fill="#3F6EE9"/>
</svg>
